<?xml version="1.0" encoding="utf-8"?>
<!-- Generator: Adobe Illustrator 21.1.0, SVG Export Plug-In . SVG Version: 6.00 Build 0)  -->
<svg version="1.1" xmlns="http://www.w3.org/2000/svg" xmlns:xlink="http://www.w3.org/1999/xlink" x="0px" y="0px"
	 viewBox="0 0 2944 2188" style="enable-background:new 0 0 2944 2188;" xml:space="preserve">
<style type="text/css">
	.st0{fill:none;}
	.st1{fill:none;stroke:#FFFFFF;stroke-width:5.4028;stroke-miterlimit:10;}
	.st2{fill:#FBB040;}
	.st3{fill:#2B244A;}
	.st4{fill:none;stroke:#EFECE7;stroke-width:4.5815;stroke-linecap:round;stroke-linejoin:round;stroke-miterlimit:10;}
	.st5{fill:#C16A44;}
	.st6{fill:none;stroke:#231F20;stroke-width:4.5815;stroke-linecap:round;stroke-linejoin:round;stroke-miterlimit:10;}
	.st7{fill:none;stroke:#231F20;stroke-width:4.6099;stroke-linecap:round;stroke-linejoin:round;stroke-miterlimit:10;}
	.st8{fill:#F7F6F6;}
	.st9{fill:#FF534C;}
	.st10{fill:#FFB6A8;}
	.st11{fill:#FFB768;}
	.st12{fill:#05CED3;}
	.st13{fill:#3692F2;}
	.st14{fill:none;stroke:#231F20;stroke-width:4.7184;stroke-linecap:round;stroke-linejoin:round;stroke-miterlimit:10;}
	.st15{fill:#EAE0E8;}
	.st16{fill:#FFFFFF;}
	.st17{fill:none;stroke:#231F20;stroke-width:4.026;stroke-linecap:round;stroke-linejoin:round;stroke-miterlimit:10;}
	.st18{fill:#B176FF;}
	.st19{fill:#EA8077;}
</style>
<g id="Layer_2">
	<rect x="4" class="st0" width="2944" height="2188"/>
</g>
<g id="Layer_1">
</g>
<g id="Layer_4">
	<line class="st1" x1="337.9" y1="574.6" x2="2518.2" y2="574.6"/>
	<path class="st1" d="M2520.2,1985.8H339.9V430.6c0-20.4,16.6-37,37-37h2106.3c20.4,0,37,16.6,37,37V1985.8z"/>
	<circle class="st1" cx="448.9" cy="484.6" r="21"/>
	<circle class="st1" cx="524.3" cy="484.6" r="21"/>
	<circle class="st1" cx="599.6" cy="484.6" r="21"/>
	<rect x="492.3" y="732.1" class="st1" width="320.2" height="320.2"/>
	<rect x="492.3" y="1182.1" class="st1" width="320.2" height="320.2"/>
	<rect x="948.1" y="732.1" class="st1" width="320.2" height="320.2"/>
	<rect x="948.1" y="1182.1" class="st1" width="320.2" height="320.2"/>
</g>
<g id="Layer_3">
	<g>
		<path class="st2" d="M2012.7,1563.1c-33.3,22.1-74.8,47.1-114.4,39.2c-30.1-6-54.4-16.7-78.5-30.4c-17.1-9.7-35.1-36.1-49.4-48.4
			c-12.6-10.8-23.5-23.1-31.9-37.3c-3.9-6.7-7.2-13.8-9.9-21.5c-9.8-28.1-5.5-62.1,17.6-82.5c8.1-7.2,18-12.3,28-16.8
			c28.8-12.9,60.7-11.4,92.1-11.1c31.8,0.3,71.1-1.2,101.7,7.6c24.5,7.1,48.7,28.3,64.4,46.5c10.9,12.6,19.9,26.9,25.4,42.3
			C2073.2,1493.8,2051.4,1537.4,2012.7,1563.1z"/>
		<path class="st3" d="M1825,1417.7l-54.6,105.8c-12.6-10.8-23.5-23.1-31.9-37.3L1825,1417.7z"/>
		<line class="st4" x1="1068.4" y1="894.7" x2="999.3" y2="1039.4"/>
		<g>
			<path class="st5" d="M1700.7,406.8c0.2-2.7,0.3-5.5-0.8-8c-1.1-2.4-3.5-4.2-6.1-4l-0.1-0.6l0,0c0.8-2.9,2.4-5.6,3.4-8.5
				c1-2.9,1.5-6.1,0.3-8.9c-1.3-3.1-4.6-5-7.9-5.7c-2.6-0.5-7.9,0.2-11.6,0.7l-0.5-0.6c11.6-5.1,24-9.6,34.5-16
				c7.2-4.5,14.3-10.2,17-18.3c0.4-1.1,0.6-2.2,0.3-3.3c-1-3.2-5.6-2.9-8.8-1.9c-23.8,7.6-47.6,15.2-71.4,22.8
				c-8.6,2.8-17.3,5.5-25,10.3c-5.1,3.1-9.6,7.1-14,11c-8,7.2-15.4,15.8-24.5,21.5c-7.2,4.5-14.8,8.9-16.9,18.2
				c-2.3,10.5,5.4,20.4,13.5,27.4c11.1,9.5,24.9,17,39.5,16.4c8.5-0.3,16.7-3.4,24.7-6.5c8.5-3.2,17-6.5,25.5-9.7
				c6.8-2.6,13.9-5.3,19.1-10.5C1697.5,426,1700,416.2,1700.7,406.8z"/>
			<path class="st6" d="M1729.2,333.8c0.3,1.1,0,2.2-0.3,3.3c-2.7,8-9.8,13.8-17,18.3c-12.6,7.8-28.1,12.6-41.5,19.4
				c-2.9,1.5-6,3.1-7.6,5.9c-1.4,2.4-1.5,5.4-1.6,8.2c-0.3,9.6-0.5,19.2-0.8,28.8c0,0.9,0,1.9,0.5,2.6c0.9,1.2,2.7,1,4.1,0.7
				c9.6-2.3,18-9.2,22.2-18.3c1.4-3.2,3-7.1,6.4-7.7"/>
			<path class="st5" d="M1075.7,531.9c15.9-6.8,33.7-10,51.3-13.2c39.5-7.1,78.5-17,116.5-29.6c26.9-8.9,57.3-21.1,85.7-22.2
				c30.1-1.2,83.3,9.1,78.3,49.3c-6.1,48.4-71.8,66.1-109.7,79.6c-51.2,18.2-101.7,38.4-154,53.3c-38.3,10.9-99,18.9-113.7-31.8
				c-5-17.1-2.6-36.3,6.4-51.7C1046.3,548.7,1060.1,538.6,1075.7,531.9z"/>
			<polygon class="st5" points="1302.3,471.9 1580.2,402.9 1616,455 1341.5,579.3 			"/>
			<path class="st7" d="M1675.3,372.3c3.3-0.5,10.9-1.7,14.3-1.1c3.3,0.6,6.6,2.6,7.9,5.6c1.2,2.8,0.7,6-0.3,8.9
				c-1,2.9-2.6,5.5-3.4,8.5"/>
			<path class="st7" d="M1662.6,387.4c2,0.9,4.2,2,5,4.1c0.7,1.8,0,3.8-0.6,5.7c-2,5.5-3.9,11.1-5.9,16.6"/>
			<path class="st8" d="M1214.2,493.2c-33.4,9.8-65.7,13.7-100,19.9c-20.3,3.6-40.7,7.3-58.9,15.1c-17.9,7.7-33.7,19.3-45,38.7
				c-10.3,17.7-13,39.7-7.3,59.4c17,58.3,86.6,49.1,130.6,36.5c43.2-12.3,84.5-25.7,126.6-41.2L1214.2,493.2z"/>
		</g>
		<path class="st9" d="M1505,971.8c-2.8-12.1-16.5-18.1-28.8-19.8c-21.1-2.9-43.1,1.6-61.3,12.6c-21.6,13-37.1,34.2-57.8,48.6
			c-23,16-51.8,22.8-79.8,20.6c-15.1-1.2-30-4.9-45-6.6c-33.9-3.9-69,2.5-99.4,18c14.7,38,28.8,76.1,45.5,113.2
			c15-5.5,30.4-11.7,45.3-17.6c-11.1,11.9-22.1,23-34.9,33.1c8.2,14.2,15.1,30.1,23.3,44.2c19.6-0.1,37.6-8.8,51.4-22.8
			c13.8-13.9,24-30.9,35.2-46.9c5.2-7.4,10.7-14.7,17.9-20.1c11.9-8.9,27-11.7,41.4-15.1c36.7-8.6,73-22.6,101.6-47
			C1488.4,1041.8,1513.4,1008.6,1505,971.8z"/>
		<path class="st10" d="M2607.2,1007c-10.2,3.8-42.4,4.9-52.1,8.6l-18.6-99c19.7-4.6,76.3-17.7,76.3-17.7L2607.2,1007z"/>
		<g>
			<path class="st8" d="M2704.2,759.3c7,26.1,11.9,55.7,10.8,82.8c-0.6,14.1-5.5,28.7-7.4,42.7c-2,15-3.2,30.2-3.6,45.3
				c-0.7,28.9,7.9,55-4.1,80.6c-1.7,3.7-9,11.2-12.8,12.7c-3.5,1.4-16.8,0.5-20.6,0.5c-5.7,0-11.5-0.4-17.2-0.8
				c-10.4-0.8-20.8-1.8-31-1.8c-1.8,0-3.8,0.1-5.7,0.3c-12.3,1-26.7,4.2-37.2-2.6c-12.2-8-1.9-26.3,5.1-33.5
				c6.9-7.1,15.1-13.5,18.5-22.8c2.7-7.3,3.4-17.5,0.3-24.5c-1.2-2.7-2.4-5.5-3.7-8.2c-1.5-3.4-3.3-7-6.6-8.6
				c-3.3-1.6-7.2-0.7-10.8,0c-7.5,1.5-25.6,6.1-28.5-4.9c-2.5-9.7,12-22,18.5-26.9c6.4-4.8,13.3-8.9,19.7-13.6
				c2.8-2,5.6-4.2,8.1-6.6c17.7-16.4,29.5-40,39.8-63.5c5.2-11.7,10-23.4,15-34c1.5-3.3,3.2-7,5.1-10.7c2.1-4.2,4.6-8.5,7.5-12
				c0.5-0.6,0.9-1.1,1.4-1.6c3.3-3.5,7.3-6.1,12.1-7C2690.8,738,2700.8,746.3,2704.2,759.3z"/>
			<path class="st3" d="M2650.9,1011.9c-1.3,4.2-1.8,7.9-1.6,11.2c-10.4-0.8-20.8-1.8-31-1.8c-1.8,0-3.8,0.1-5.7,0.3
				c0-0.4,0-0.9,0-1.3c0.6-30.6,6.7-61,18-89.5c4.4-11.1,9.6-22.3,9.3-34.1c-0.2-7-2.4-14-2-21c0.4-7,4.5-14.7,11.5-15.7
				c3.5-0.5,7.1,0.8,10.6,0.3c19-2.8,14.7-40.3,15-52.6c0.1-4.8,0.2-9.6-0.4-14.3c-1.5-10.7-7-20.7-14.6-28.4
				c-1.3-1.3-2.6-2.6-4-3.9c2.1-4.2,4.6-8.5,7.5-12c2.1,1.6,4.7,2.7,7.1,3.9c30.8,15.1,32.6,57.2,27.4,86.8
				c-5,28.6-20.7,54.5-26.1,83.1c-4.2,21.8-2.3,44.8-10.5,65.4C2658.2,996.2,2653.5,1003.7,2650.9,1011.9z"/>
			<path class="st6" d="M2699.9,1010.7c11.8-26,3.4-53.6,4.1-80.6c0.4-15.2,1.6-30.3,3.6-45.3c1.9-14.1,6.8-28.7,7.4-42.7
				c1.2-27.1-3.7-56.7-10.8-82.8c-3.5-13-13.5-21.2-27.2-18.8c-4.8,0.9-7,4.7-10.3,8.2c-0.5,0.5,1.4,3.1,3.8,4.3
				c30.8,15.1,32.6,57.2,27.4,86.8c-5,28.6-20.7,54.5-26.1,83.1c-4.2,21.8-2.3,44.8-10.5,65.4c-3.2,8-7.8,15.4-10.4,23.6
				c-1.3,4.2-1.8,7.9-1.6,11.2c0.7,0.1,1.4,0.1,2.2,0.2c8.4,0.6,16.9,1.3,25.3,1.4c3.5,0,7-0.1,10.3-1.2
				C2692.9,1021.5,2697.3,1016.4,2699.9,1010.7z"/>
			<path class="st6" d="M2593.2,925.2c-4.3-7.1-6.1-10.7-10.4-17.8c-1.3-2.1-2.6-4.2-3-6.6c-0.5-2.3-0.2-4.7,0.4-7
				c1.6-6.5,5.2-12.4,10.1-16.8c3.2-2.9,1.5-3.5,4.9-6.2"/>
			<path class="st3" d="M2635.9,805.8c0.2,0.2,0.3,0.4,0.5,0.6c8.5,11.6,7.7,29.1-1.8,39.8c-5.3,6-13,10.2-15.7,17.8
				c-1.6,4.5-1.2,9.9-4.6,13.3c-4.1,4.2-11,2.8-16.5,1.1c-3-0.9-6.5-1.6-9.9-2.6c2.8-2,5.6-4.2,8.1-6.6
				C2613.8,852.9,2625.5,829.3,2635.9,805.8z"/>
			<path class="st6" d="M2596.1,869.3l-53.6,1.8c-6.2,0.2-11.3-5-11-11.2l0,0c0.4-7.2,7.6-11.9,14.4-9.4L2596.1,869.3z"/>
			<path class="st6" d="M2595.1,869.8l-35.8-39.9c-4.2-4.6-3.5-11.8,1.5-15.6l0,0c5.7-4.3,14.1-1.8,16.4,5L2595.1,869.8"/>
			<path class="st11" d="M2691.4,938.1l-3,56.9c-0.1,2.6-2.4,4.7-5,4.5l-1.6-0.1c-2.6-0.1-4.7-2.4-4.5-5l3-56.9
				c0.1-2.6,2.4-4.7,5-4.5l1.6,0.1C2689.5,933.2,2691.6,935.4,2691.4,938.1z"/>
		</g>
		<path class="st12" d="M2559.9,1038.5c-168,62.4-242.1,83-352.8,96.1c-4.4,0.5-20.1,67.8-22,74c-10.6,34.4-21.2,68.8-32.4,103
			c-5.3,16.2-14.4,30.2-20.6,46.2c-7.5,19.5-14.4,39.2-21.5,58.8c-13.8,38.2-28.3,76.5-49.3,111.5c-25.9,43.2-86.9,81-139,59.9
			c-28.7-11.6-51.2-37.7-60-67.1c-8-26.8-4.7-49.5,4.1-70.6c9.4-22.6,25.1-43.5,40-65.7c23.2-34.7,109.9-212.2,163.3-309.9
			c18.8-34.5,51.1-59.6,89.1-69.6c5-1.3,10.1-2.6,15.4-4c2.1-0.5,4.2-1.1,6.3-1.6c1.2-0.3,2.4-0.6,3.6-0.9c2.1-0.5,4.2-1.1,6.3-1.6
			c0.2,0,0.4-0.1,0.5-0.1c114.1-29,289-69.8,334.4-80.4c0.2-0.1,0.4-0.1,0.7-0.2c0.6-0.1,1.2-0.3,1.9-0.4c0.1,0,0.1,0,0.1,0
			c0.5-0.1,1-0.2,1.5-0.4c0.3-0.1,0.6-0.2,0.9-0.2c0.2-0.1,0.4-0.1,0.6-0.1c0.5-0.1,0.9-0.2,1.3-0.3c0.8-0.2,1.5-0.4,2.1-0.5
			c0.2,0,0.4-0.1,0.5-0.1c0.1,0,0.2,0,0.2-0.1c0.1,0,0.3-0.1,0.4-0.1c0.5-0.1,0.7-0.2,0.7-0.2l18.6,99L2559.9,1038.5z"/>
		<path class="st2" d="M2559.9,1038.5c-168,62.4-242.1,83-352.8,96.1c-4.4,0.5-20.1,67.8-22,74c-10.6,34.4-21.2,68.8-32.4,103
			c-5.3,16.2-14.4,30.2-20.6,46.2c-7.5,19.5-14.4,39.2-21.5,58.8c-13.8,38.2-28.3,76.5-49.3,111.5c-25.9,43.2-86.9,81-139,59.9
			c-28.7-11.6-51.2-37.7-60-67.1c-8-26.8-4.7-49.5,4.1-70.6c9.4-22.6,25.1-43.5,40-65.7c23.2-34.7,109.9-212.2,163.3-309.9
			c18.8-34.5,51.1-59.6,89.1-69.6c5-1.3,10.1-2.6,15.4-4c2.1-0.5,4.2-1.1,6.3-1.6c1.2-0.3,2.4-0.6,3.6-0.9c2.1-0.5,4.2-1.1,6.3-1.6
			c0.2,0,0.4-0.1,0.5-0.1c114.1-29,289-69.8,334.4-80.4c0.2-0.1,0.4-0.1,0.7-0.2c0.6-0.1,1.2-0.3,1.9-0.4c0.1,0,0.1,0,0.1,0
			c0.5-0.1,1-0.2,1.5-0.4c0.3-0.1,0.6-0.2,0.9-0.2c0.2-0.1,0.4-0.1,0.6-0.1c0.5-0.1,0.9-0.2,1.3-0.3c0.8-0.2,1.5-0.4,2.1-0.5
			c0.2,0,0.4-0.1,0.5-0.1c0.1,0,0.2,0,0.2-0.1c0.1,0,0.3-0.1,0.4-0.1c0.5-0.1,0.7-0.2,0.7-0.2l18.6,99L2559.9,1038.5z"/>
		<g>
			<path class="st10" d="M2152.5,731.3c-0.8-2.6-1.8-5.2-3.7-7.1c-1.9-1.8-4.9-2.6-7.1-1.4l-0.3-0.5l0,0c-0.3-3,0.1-6.1,0-9.1
				c-0.1-3-0.9-6.3-3-8.4c-2.4-2.4-6.1-2.9-9.4-2.3c-2.6,0.5-7.2,3.1-10.5,5l-0.7-0.3c8.8-9.1,18.7-17.8,26-27.8
				c5-6.9,9.4-14.8,8.9-23.3c-0.1-1.1-0.2-2.3-0.9-3.2c-2.1-2.6-6.3-0.6-8.9,1.5c-19.2,16-38.5,31.9-57.7,47.9
				c-7,5.8-14,11.6-19.3,18.9c-3.5,4.8-6.2,10.1-8.9,15.5c-4.7,9.6-8.4,20.4-14.7,29.1c-5,6.9-10.4,13.8-8.9,23.2
				c1.7,10.6,12.6,16.9,22.8,20.3c13.8,4.6,29.4,6.4,42.7,0.4c7.8-3.5,14.2-9.4,20.5-15.2c6.7-6.2,13.3-12.4,20-18.5
				c5.4-5,10.9-10.2,13.7-16.9C2156.7,750.4,2155.3,740.3,2152.5,731.3z"/>
			<path class="st6" d="M2151.6,652.9c0.7,0.9,0.9,2.1,0.9,3.2c0.5,8.5-3.9,16.4-8.9,23.3c-8.8,12-21.3,22.2-31.3,33.5
				c-2.2,2.4-4.4,5.1-4.8,8.3c-0.4,2.8,0.6,5.5,1.6,8.2c3.3,9,6.7,18,10,27c0.3,0.8,0.7,1.8,1.5,2.2c1.3,0.8,2.8,0,4-0.9
				c8.1-5.7,13.3-15.3,13.7-25.2c0.2-3.5,0.1-7.7,3-9.5"/>
			<path class="st13" d="M1619.4,1080.8c12.2-12.2,27.5-21.8,42.7-31.4c34-21.3,66.4-45,97-71c21.6-18.3,45.3-41,71.2-52.6
				c27.5-12.4,80.7-22.7,91,16.5c12.4,47.2-41.9,88.1-72,114.8c-40.7,36-80,73.6-122.9,106.9c-31.5,24.5-84.7,54.5-117.4,13
				c-11-14-16-32.7-13.4-50.3C1598.5,1107.4,1607.4,1092.9,1619.4,1080.8z"/>
			<polygon class="st13" points="1807.2,940.5 2033.1,774.3 2085.8,818.9 1883.7,1025.5 			"/>
			<path class="st7" d="M2116,708.8c2.9-1.7,9.5-5.7,12.8-6.3c3.3-0.6,7-0.1,9.4,2.3c2.2,2.1,2.9,5.3,3,8.4c0.1,3-0.3,6.1,0,9.1"/>
			<path class="st7" d="M2109.9,727.5c2.2,0.1,4.7,0.3,6.1,1.9c1.3,1.4,1.5,3.5,1.5,5.5c0.3,5.9,0.5,11.8,0.8,17.6"/>
			<path class="st13" d="M1741.1,994c-27.3,21.6-63.5,36.5-93,55c-17.5,10.9-35,22-49,36c-13.8,13.8-24.1,30.5-27.3,52.8
				c-3,20.3,2.7,41.7,15.4,57.8c37.5,47.7,98.7,13.2,134.8-14.9c35.4-27.5,68.8-55.4,102-85.5L1741.1,994z"/>
		</g>
		<path class="st13" d="M1891.2,1375.3c-6.8,9.9-135.1,132-196.4,144.4c-1.5,0.3-95.5-115-102.2-129.3
			c-26.5-57-58.9-113.8-66.5-177.2c-4-33.4,0.2-68.4,13.8-99.4c13.5-30.8,44.7-63.5,81.3-60.3c25.7,2.3,50,17.9,70.2,33
			c20.4,15.3,40.2,28.5,62.8,41.3c6.2,3.5,12.5,7.1,17.4,12.4c13,14.1,12,36,6.9,54.5c-5.1,18.2-0.9,21.6,10.2,36.4
			c9.2,12.3,18.4,24.5,27.6,36.8c8,10.7,16.1,21.5,26.1,30.4c23.6,21.1,52.5,25.7,80.3,37.8c-3.3,14.1-13.3,19.5-22.7,28.7
			C1896.7,1367.7,1893.8,1371.4,1891.2,1375.3z"/>
		<path class="st14" d="M388.2,1588c1.3-1.2,12.2-18.7,20.3-32c4.3-6.9-0.7-15.6-9.3-16.3h0c-7.2-0.6-13.2,4.8-12.9,11.4L388.2,1588
			z"/>
		<g>
			<rect x="1726.4" y="1182.5" class="st12" width="387.7" height="145.8"/>
			<circle class="st8" cx="1765.4" cy="1218.1" r="12.4"/>
			<circle class="st8" cx="1837.4" cy="1259.3" r="12.4"/>
			<circle class="st8" cx="1750.6" cy="1312.5" r="12.4"/>
			<circle class="st8" cx="1906.4" cy="1213.5" r="12.4"/>
			<circle class="st8" cx="1978.7" cy="1260" r="12.4"/>
			<circle class="st8" cx="1911.3" cy="1312.5" r="12.4"/>
		</g>
		<polygon class="st15" points="1009.2,958.2 986.9,1066.5 882.1,948.1 		"/>
		<g>
			<polygon class="st5" points="1078.3,1729.7 1120.6,1813.4 1208.5,1800.9 1188.1,1708.2 			"/>
			<path class="st5" d="M1383.9,1908.7c-0.4,16.3-22.7,20.2-37.1,21.5c-11.6,1.1-23.3,2.2-35,2.8c-21.6,1.3-43.8,1.5-64.1-5.2
				c-9.6-3.2-18.6-7.9-28.5-10.5c-12.1-3.1-22.1,1-34,1.6c-14.1,0.7-27.9,1-41.7-2.2c-8-1.9-16.1-5-20.9-11.2
				c-6.9-8.9-4.7-20.9-3.2-31.7c3.3-22.9,2.8-46.3-1.6-69c-1.9-10,8.1-17.8,17.9-22.5c5.2-2.6,11.1-3.8,17-4.2
				c15.5-1.2,31.4,2.8,44.1,11c9.1,5.9,16.5,13.8,24.7,20.8c13.6,11.8,29.5,21.1,44.7,31.2c19.7,12.9,38.5,27,57.3,41.1
				c11.8,8.8,23.1,14.4,38.3,14.4c3.6,0,7.1-0.3,10.7,0.1c3.5,0.4,7.1,1.8,9.2,4.4C1383.4,1903.2,1383.9,1906,1383.9,1908.7z"/>
			<path class="st8" d="M1381.9,1935.9c-9.7,4.9-20.7,7.2-31.6,9.3c-21.8,4.2-44,8.2-66.1,5.8c-26.3-2.9-51.2-14.7-77.8-14.6
				c-14.6,0.1-25.7,6.1-39.3,8.8c-11.9,2.3-28.4-1.8-40.2-3.8c-11.2-2-23.6-5.6-28.6-15c-4.2-8-1.1-15.7,1.6-23.6
				c2.6-7.4,2.9-14.8,3.6-22.7c1-10.5,2.2-21,2.4-31.6c0.1-7.2-0.3-14.5-1.6-21.7c-0.9-4.8-2.3-9.6-1.9-14.5
				c0.6-8,6.1-14.5,14.1-8.3c3.4,2.6,5.7,6.2,7.9,9.7c3.7,5.8,7.4,11.5,11,17.3c1.4,2.2,2.8,4.4,4.8,6
				c18.7,14.9,49.2-10.1,62.3-20.8c1.5-1.2,3-2.5,3.5-4.2c0.1-0.2,0.1-0.4,0.2-0.6c0.4-2.2-0.8-4.4-1.8-6.5
				c-3.2-6.3-5.6-13-7.1-19.8c-0.7-3.2-0.4-7.7,3.2-8.3c1.9-0.4,3.7,0.7,5.2,1.7c12.1,8,22.9,17.6,31.9,28.5
				c5.6,6.8,10.6,14,17.3,19.9c6.5,5.8,14.5,10,22.2,14.3c0.6,0.3,1.1,0.6,1.7,0.9c12.7,7,25.8,13.8,37.5,21.8
				c12.9,8.8,26.9,17.1,42.8,20.5c6.6,1.4,13.5,2,20.1,3.7c6.6,1.7,13.1,4.7,17,9.8c2.5,3.3,3.9,6.5,4.5,9.7
				C1403,1919.1,1393.9,1929.8,1381.9,1935.9z"/>
			<path class="st13" d="M1381.9,1935.9c-9.7,4.9-20.7,7.2-31.6,9.3c-21.8,4.2-44,8.2-66.1,5.8c-26.3-2.9-51.2-14.7-77.8-14.6
				c-14.6,0.1-25.7,6.1-39.3,8.8c-11.9,2.3-28.4-1.8-40.2-3.8c-11.2-2-23.6-5.6-28.6-15c-4.2-8-1.1-15.7,1.6-23.6
				c2.6-7.4,2.9-14.8,3.6-22.7c1-10.5,2.2-21,2.4-31.6c11.3-0.5,23.6,4.8,32.1,13.7c4.8,5,9.3,10.5,14.6,15.1
				c3.8,3.3,7.9,6.1,12.8,7.9c10.3,3.8,21.9,2.2,32.9,3.7c17.9,2.4,33.2,12.8,49.5,20c7.9,3.5,16.1,6.2,24.5,8.3
				c17.2,4.3,35.3,5.7,53.1,5.3c13.3-0.3,27.2-1.2,40.2-3.9c11.9-2.4,23.3-7.4,35.1-11C1403,1919.1,1393.9,1929.8,1381.9,1935.9z"/>
			<path class="st14" d="M1113.5,1799.3c-0.8-1.5-15.1-16.8-26-28.3c-5.7-6-16.2-4.6-19.8,2.7h0c-3,6,0.5,13.1,7.4,15L1113.5,1799.3
				z"/>
			<path class="st3" d="M1279,1842c-1,0.1-2,0.1-3,0c-16.7-0.6-32.8-6.7-46.7-15.2c-5.3-3.2-14.2-8.8-22.9-15.6
				c0.4-2.2-0.8-4.4-1.8-6.5c-3.2-6.3-5.6-13-7.1-19.8c-0.7-3.2-0.4-7.7,3.2-8.3c1.9-0.4,3.7,0.7,5.2,1.7
				c12.1,8,22.9,17.6,31.9,28.5c5.6,6.8,10.6,14,17.3,19.9c6.5,5.8,14.5,10,22.2,14.3C1277.9,1841.4,1278.4,1841.7,1279,1842z"/>
			<path class="st14" d="M1272.5,1917.1c-8.4-2.1-16.6-4.8-24.5-8.3c-16.3-7.2-31.6-17.6-49.5-20c-11-1.5-22.6,0.1-32.9-3.7
				c-4.8-1.8-9-4.6-12.8-7.9c8.6-3.8,20.5-7,24.5-8.1c13.1-3.4,27.4-4.3,40.3-0.2c11.7,3.7,21.5,11.2,30.2,19.3
				C1257.1,1897.1,1265.4,1906.8,1272.5,1917.1z"/>
		</g>
		<g>
			<polygon class="st5" points="448,1534.3 376.1,1598.9 418.2,1670.8 506.6,1622.3 			"/>
			<path class="st5" d="M365.9,1858.7c-16.9,5-28.3-13-34.4-25c-5-9.7-10-19.5-14.5-29.3c-8.5-18.3-16.1-37.4-15.9-57.3
				c0.1-9.4,2-18.8,1.2-28.2c-0.9-11.5-8.3-18.8-12.9-28.9c-5.4-12-10.3-23.8-11.6-36.9c-0.7-7.5-0.2-15.6,4.5-21.8
				c6.8-8.9,19.9-11.1,31.5-13.3c24.6-4.7,48.4-13,70.3-24.3c9.6-5,20.9,1.1,29.1,8c4.4,3.7,7.6,8.4,10,13.4
				c6.4,13,7.6,28.1,3.4,41.9c-3,9.9-8.7,18.9-13.2,28.3c-7.6,15.7-11.9,32.6-17.1,49.1c-6.7,21.4-14.9,42.4-23.1,63.3
				c-5.1,13.2-7.1,24.8-2,37.9c1.2,3.1,2.7,6.1,3.5,9.3c0.7,3.2,0.5,6.7-1.5,9.4C371.4,1856.5,368.7,1857.8,365.9,1858.7z"/>
		</g>
		<path class="st12" d="M1216.8,1727.4l-65.2,9.6l-22.2,3.3l-58.6,8.7c0,0-93-210-110-280.7l-16.6-77.6
			c-62.7-71-105.2-149.7-145.3-232.1c-7.8-15.9-9.5-29.9-21.9-43.4c-27.3-30-42.4-68.3-42-106.5c0.5-42.7,21.6-116,84.3-112.4
			c18.8,1.1,36.6,8,52.9,16.2c32.7,16.5,69.9,40.8,87.5,73.2c41.9,77.5,72.3,159.8,104.3,241.7c19.3,49.6,36.6,99.9,52.7,150.6
			c33,104.2,60.7,210.1,90.4,315.2C1207.6,1695,1216,1727.4,1216.8,1727.4z"/>
		<path class="st12" d="M769.2,1076.4l-71.9,281c-113,28.9-161.4,104-275.6,176.9l75.6,136.6c0,0,205.4-130.2,306-184.9
			c30.4-16.5,53.5-41.4,65.7-70.7l137.9-331.8L769.2,1076.4z"/>
		<path class="st8" d="M337.3,1866c-8.3-6.8-14.3-15.6-20-24.3c-11.6-17.4-23-35.4-27.9-55.4c-5.8-23.8-1.9-49.3-10.9-72.2
			c-5-12.7-14.9-20.2-22.1-31.1c-6.3-9.5-7.6-25.2-9.5-36.1c-1.7-10.4-2.2-22.3,5.9-29.7c6.9-6.3,15.8-6.2,24.7-6.4
			c8.5-0.2,16.1-2.4,24.5-4.4c11.1-2.7,22.3-5.1,33.2-8.5c7.5-2.3,14.8-5.1,21.7-8.6c4.7-2.4,9.1-5.2,14.3-6.5
			c8.4-2.2,16.9,0.4,13.2,9.4c-1.6,3.8-4.4,7-7.3,10.1c-4.7,5.1-9.4,10.2-14.1,15.3c-1.8,1.9-3.5,3.9-4.5,6.2
			c-9,21.2,26.7,39.3,42.1,47.1c1.7,0.9,3.5,1.7,5.5,1.6c0.2,0,0.5,0,0.7-0.1c2.4-0.4,4.3-2.1,6-3.7c5.4-4.9,11.5-9.2,18-12.7
			c3.1-1.7,7.8-2.9,9.6,0c1,1.5,0.5,3.4,0,5.1c-4.2,13.1-10.5,25.7-18.6,37.1c-5.1,7.1-10.9,13.8-14.7,21.6
			c-3.7,7.6-5.4,15.9-7.3,24c-0.1,0.6-0.3,1.2-0.4,1.8c-3,13.3-5.6,26.9-9.9,39.8c-4.8,14.2-8.6,28.9-6.8,43.9
			c0.7,6.2,2.4,12.4,2.9,18.6c0.5,6.3-0.4,12.9-4.4,18c-2.5,3.2-5.4,5.6-8.5,7.1C361.6,1878.7,347.6,1874.4,337.3,1866z"/>
		<path class="st13" d="M337.3,1866c-8.3-6.8-14.3-15.6-20-24.3c-11.6-17.4-23-35.4-27.9-55.4c-5.8-23.8-1.9-49.3-10.9-72.2
			c-5-12.7-14.9-20.2-22.1-31.1c-6.3-9.5-7.6-25.2-9.5-36.1c-1.7-10.4-2.2-22.3,5.9-29.7c6.9-6.3,15.8-6.2,24.7-6.4
			c8.5-0.2,16.1-2.4,24.5-4.4c11.1-2.7,22.3-5.1,33.2-8.5c4.3,9.6,2.9,22.1-3.3,32.4c-3.5,5.8-7.7,11.6-10.6,17.7
			c-2.1,4.4-3.6,8.9-3.8,13.7c-0.5,10.2,5.1,19.7,7.2,29.7c3.5,16.3-2.1,33-4.1,49.6c-0.9,8-1,16-0.3,24
			c1.4,16.4,5.9,32.5,12.3,47.8c4.8,11.4,10.3,23.1,17.3,33.5c6.5,9.5,15.4,17.8,22.9,26.7C361.6,1878.7,347.6,1874.4,337.3,1866z"
			/>
		<path class="st3" d="M399.4,1745.6c-0.4-0.8-0.7-1.7-1-2.6c-4.9-14.7-4.1-30.6,0-45.5c1.5-5.7,4.3-15.2,8.4-25
			c2.4-0.4,4.3-2.1,6-3.7c5.4-4.9,11.5-9.2,18-12.7c3.1-1.7,7.8-2.9,9.6,0c1,1.5,0.5,3.4,0,5.1c-4.2,13.1-10.5,25.7-18.6,37.1
			c-5.1,7.1-10.9,13.8-14.7,21.6c-3.7,7.6-5.4,15.9-7.3,24C399.7,1744.4,399.6,1745,399.4,1745.6z"/>
		<path class="st14" d="M320.2,1764.9c-0.7-8-0.6-16,0.3-24c2-16.6,7.6-33.2,4.1-49.6c-2.1-10-7.6-19.5-7.2-29.7
			c0.2-4.8,1.7-9.3,3.8-13.7c6.8,6.2,14,15.4,16.4,18.6c7.9,10.3,13.5,22.3,13.6,34.9c0.1,11.4-4.3,22.4-9.8,32.6
			C335.6,1745,328.5,1755.4,320.2,1764.9z"/>
		<path class="st6" d="M763.6,1098.3c60.3,116.1,87,159.3,137.3,240.1"/>
		<polygon class="st3" points="697.3,1357.4 763.6,1390.7 708.3,1314.5 		"/>
		<line class="st6" x1="992.8" y1="1056.8" x2="949.5" y2="976"/>
		<polygon class="st5" points="1040.6,372.8 973.8,480.7 1073,519.2 1117.6,440.2 		"/>
		<path class="st5" d="M1088,546.5c-0.7-0.1-1.4-0.2-2.1-0.2c-37.6-4.8-73.8-19.9-103.8-43.1c-6.3-4.9-17.1-13.3-24.1-22.4
			c16.8-8.9,35.6-14.4,54.4-12.5c28.1,2.7,46.8,25.4,61,47.8C1079.1,525.2,1084,535.5,1088,546.5z"/>
		<path class="st5" d="M1186,383.6c-1-1.3-1.7-2.7-2.3-4.2c4.8-25.8,5.2-52.7-4.2-76.4c-10.2-25.6-36.8-39.9-63.5-43.2
			c-27.2-3.4-60.8,2.6-79.3,23.5c-4.4,5-8,10.6-11.4,16.3c-7.8,13.1-11.9,25.9-10.8,41.3c1.1,16.5,5.7,33.9,15.1,47.7
			c23.3,34.1,59.3,64,101.5,71.4c46.7,8.1,43.2-49.8,48.2-61c1.5-0.2,3.1-0.5,4.5-0.9c3.3-1,6.9-3.5,6.8-6.9
			C1190.6,388.2,1187.9,386,1186,383.6z"/>
		<path class="st3" d="M1115.3,379.4c-1.1,0.1-2.4,0-3.8-0.3c-4.8-1.2-9.4-3-13.6-5.5c-7.8,17.1-12.8,36.7-33.6,43.3
			c-8,2.5-16.9,2.2-24.3,6.2c-5.7,3.1-10,8.4-15.9,10.9c-5.9,2.5-14.9-0.2-15-6.6c0-2.3,1.2-4.5,2.2-6.6
			c16.4-34.5-13.5-66.7-10-101.3c1.4-14.3,8.8-27.2,17.5-38.7c4.1-5.4,8.6-10.7,14-14.8c7.9-5.9,17.6-9.1,27.3-11.3
			c21.2-5,45.4-7.2,67.2-5.2c14.1,1.3,28,5.1,42.2,5.6c14.2,0.5,29.4-2.7,39.2-13.1c-1.4,1.4-1.6,8.6-2.5,10.9
			c-1.7,4.3-4.6,7.9-6.9,11.8c-4.1,7.1-8,12.2-14,18.1c8.7-0.5,17.6-2.9,25.9-5.5c-9.3,13.6-22.6,24.3-37.7,30.9
			c-14.8,6.5-29.9,6.4-45.4,9.3C1120.8,329.1,1131.5,377.6,1115.3,379.4z"/>
		<circle class="st5" cx="1077.5" cy="363.8" r="34.2"/>
		
			<ellipse transform="matrix(0.1882 -0.9821 0.9821 0.1882 579.2512 1428.3373)" class="st3" cx="1153.7" cy="363.8" rx="7.5" ry="4"/>
		<path class="st3" d="M1178.6,342.9c2.6-3.7,1-9.5-3-11.4c-2.4-1.1-5.1-1-7.7-0.8c-9.5,0.8-17.2,3.8-25.9,7.6
			c-3.9,1.7-8.7,5.5-8,10.4c0.4,2.6,2,3.8,4.5,3.9c3.7,0.2,7.6-1,11.2-1.5c4.1-0.6,8.2-1.3,12.3-1.9
			C1167.2,348.4,1175.4,347.5,1178.6,342.9z"/>
		<path class="st16" d="M1143,414.1c0.6,0.5,1.1,0.9,1.5,1.3c3.9,3.2,17.6,10.4,17.4-0.1c-0.1-6-21.4-27.6-27.2-21.4
			C1129.1,399.8,1137.9,409.5,1143,414.1z"/>
		<path class="st8" d="M1045.7,835.9c-12.9,26.3-30.4,63.3-24.7,92.9c2.1,11.1,6.7,23.3,0.9,33c-5,8.5-17.2,13.2-17.5,23
			c-0.2,5.6,3.9,10.4,5.6,15.8c19,59.8-100,35.9-124.6,30.9c-64-12.8-125.8-35-188.2-53.9c20.4-47.6,61.6-101.9,78.5-150.7
			c17.4-50.5,33.2-102.6,47.8-153.3c9.9-34.4,21.5-68.6,39.2-99.9c17.8-31.4,41.9-53.6,69.6-75.9c7.8-6.3,16.4-12.1,25.5-17
			c7.1,9,90.3,60.6,127.9,65.4c0.7,0.1,1.4,0.2,2.1,0.2c9.8,26.6,15.3,57,17.5,82.6C1111.8,700.3,1078.3,769.3,1045.7,835.9z"/>
		<path class="st4" d="M2171.8,1842.7h-504c-68.2,0-124.9-52.6-130.1-120.6l-8.5-112.2l-9.6-126.6l-11.8-155.6L1494,1148l-3.8-49.4
			l-6.3-82.7c-1.9-25-9.2-49.4-21.9-71c-17.3-29.2-40-47.1-67.6-54.9c-11.4-3.2-23.5-4.7-36.5-4.6"/>
		<circle class="st4" cx="1708" cy="1896.8" r="53.7"/>
		<circle class="st4" cx="2163.8" cy="1896.8" r="53.7"/>
		<circle class="st4" cx="2163.8" cy="1896.8" r="20.4"/>
		<circle class="st4" cx="1708" cy="1896.8" r="20.4"/>
		<path class="st10" d="M1564.7,1118.1c0,0-26.7-100.2-19.3-94.2c7.3,6,102.9,6.4,102.9,6.4l9.3,79.6L1564.7,1118.1z"/>
		<path class="st10" d="M1575.9,868.4c-27.5-1.3-57.3,14.2-71.3,38.1c-32.8,56,18.9,110.4,70.4,126.3c11.1,3.4,22.5,5.6,33.9,7.2
			c5.4,0.8,11.8,2.5,17.3,2c5.1-0.5,10-1.4,15.3-1.6c10.7-0.3,22.8-5.9,29.7-14.2c13.3-15.9,7.9-38.1,1.7-55.8
			c-3.1-8.9-6.5-17.6-11.2-25.7c-10-17.2-18.4-36.6-33.1-50.4c-5-4.7-10-9.2-15.7-13C1601.9,873.9,1589.2,869,1575.9,868.4z"/>
		<path class="st17" d="M1621.5,935.1l11.8,19.3c9.4-6.7,13.5-5.1,7.5,12.8"/>
		<path class="st16" d="M1619.5,990.2c1.5,2.2,3.9,3.7,6.4,4.8c2.3,1.1,4.7,2,7.3,2.1c2,0.1,4-0.2,6-0.7c2.5-0.7,5-1.8,6.8-3.7
			c1.8-1.9,2.6-4.9,1.5-7.3c-0.8-1.6-2.3-2.8-4-3.5c-1.7-0.7-3.5-0.9-5.3-1.1c-2.9-0.4-5.9-0.7-8.8-1.1c-1.9-0.2-3.8-0.5-5.7-0.1
			C1618.6,980.5,1616.8,986.1,1619.5,990.2z"/>
		
			<ellipse transform="matrix(0.8871 -0.4616 0.4616 0.8871 -245.3584 861.876)" class="st3" cx="1639.3" cy="932.5" rx="3.5" ry="6.3"/>
		
			<ellipse transform="matrix(0.8871 -0.4615 0.4615 0.8871 -261.0424 847.3169)" class="st3" cx="1601.7" cy="957.3" rx="3.5" ry="6.3"/>
		<path class="st9" d="M1640.4,905.8c-0.7-1.5-2.1-2.7-3.7-2.6c-1.7,0.1-3,1.5-4.1,2.8c-3.1,4-10.9,14.8-7.2,19.7
			c5.5,7.3,7.8-2.1,9.9-5.9c2.3-4.1,6.7-7.9,5.4-13.1C1640.6,906.4,1640.5,906.1,1640.4,905.8z"/>
		<path class="st9" d="M1594.6,940.2c-0.7-1.5-2.1-2.7-3.7-2.6c-1.7,0.1-3,1.5-4.1,2.8c-3.1,4-10.9,14.8-7.2,19.7
			c5.5,7.3,7.8-2.1,9.9-5.9c2.3-4.1,6.7-7.9,5.4-13.1C1594.9,940.8,1594.7,940.5,1594.6,940.2z"/>
		<path class="st9" d="M1572.5,1003.4c0.1-0.7,0.3-1.4,0.5-2.1c0.6-1.9,2-3.3,3.1-4.9c2.7-4.2,2.6-9.7,1.6-14.6
			c-4.6-23.4-25.2-40.5-32.6-63.1c12.9,8,29.8,3.4,43.7-2.8c10.3-4.6,27.7-9.4,34.4-19.3c8.2-12.2-14.2-24.9-24.1-30.3
			c-13.3-7.3-27.5-6.2-42-1.9c-30.3,8.8-55.8,32.8-67.3,62.1c-5.1,13-9.9,32.2-8,46.2c1.5,10.7,6.7,20.7,13.6,28.8
			c11.3,13.5,30.5,20.3,39.2,35.6c2.8,4.9,4.4,10.3,7.6,14.9c3.2,4.6,8.7,8.3,14.2,7c4.1-1,7.2-4.7,8.8-8.6c3-7.4,4.5-16.5,6.6-24.2
			C1574.1,1018.6,1571.2,1010.5,1572.5,1003.4z"/>
		<path class="st10" d="M2576,925.8c-2.1,1.5-4.2,3-6.3,4.5c-1.5,1.1-3.1,2.2-4.6,3.3c-12.9,9.4-25.3,18.6-37.2,27.6l-48.8-94.6
			c0.4-0.2,0.7-0.4,1-0.6c0.6-0.3,1.1-0.6,1.7-0.9c1.1-0.6,2.2-1.2,3.2-1.8c1.1-0.6,2.1-1.1,3.1-1.7c7.9-4.3,14.8-8.1,20.7-11.2
			c0.7-0.4,1.3-0.7,2-1.1c0,0,0,0,0,0c0.6-0.3,1.3-0.7,1.9-1c0.5-0.3,0.9-0.5,1.3-0.7c0.3-0.2,0.7-0.4,1-0.5c0.1,0,0.2-0.1,0.3-0.2
			c0.6-0.3,1.1-0.6,1.6-0.9c0,0,0,0,0.1,0c0.3-0.2,0.6-0.3,0.9-0.5c0.3-0.2,0.6-0.3,0.9-0.5c0.5-0.2,0.9-0.5,1.3-0.7
			c1.2-0.7,2.3-1.3,3.3-1.8c0.4-0.2,0.7-0.4,1.1-0.6c3.6-2,5.5-3,5.5-3C2576.5,826.2,2594.4,851.7,2576,925.8z"/>
		<path class="st7" d="M2479.1,866.6c0.3-0.2,0.7-0.4,1-0.5C2479.8,866.2,2479.5,866.4,2479.1,866.6L2479.1,866.6z"/>
		<g>
			<path class="st8" d="M2537.1,649.3c20.6,17.6,41.3,39.2,55.6,62.3c7.4,12,11.6,26.8,18,39.5c6.8,13.5,14.4,26.7,22.6,39.4
				c15.7,24.3,37.6,40.9,42.1,68.9c0.6,4-1.1,14.4-3.4,17.7c-2.1,3.1-13.6,9.9-16.7,12c-4.8,3.2-9.7,6.2-14.7,9
				c-9,5.2-18.2,10.2-26.6,16c-1.5,1-3,2.2-4.6,3.5c-9.5,7.8-19.7,18.5-32.2,18.8c-14.6,0.3-16.4-20.7-14.7-30.5
				c1.7-9.7,4.8-19.7,2.4-29.3c-1.9-7.5-7-16.4-13.6-20.4c-2.5-1.6-5.1-3.1-7.6-4.7c-3.2-1.9-6.7-4-10.4-3.4
				c-3.6,0.6-6.3,3.5-8.9,6.1c-5.3,5.5-17.7,19.5-26.3,12c-7.6-6.6-2.5-24.9,0.1-32.6c2.5-7.6,5.9-14.9,8.6-22.4
				c1.2-3.3,2.2-6.6,3-10c5.4-23.5,1.7-49.7-3-74.9c-2.3-12.6-4.9-24.9-6.8-36.6c-0.6-3.6-1.3-7.6-1.9-11.7c-0.6-4.7-1-9.6-0.6-14.2
				c0.1-0.7,0.2-1.4,0.3-2.2c0.8-4.8,2.6-9.2,6.1-12.6C2514,639.4,2526.9,640.6,2537.1,649.3z"/>
			<path class="st3" d="M2635.7,887.9c1.3,4.2,3,7.6,5,10.2c-9,5.2-18.2,10.2-26.6,16c-1.5,1-3,2.2-4.6,3.5
				c-0.2-0.4-0.5-0.7-0.7-1.1c-16.7-25.6-28.9-54.2-35.7-84c-2.6-11.6-4.6-23.8-11.6-33.4c-4.1-5.7-9.8-10.2-13.5-16.2
				c-3.6-6-4.6-14.7,0.6-19.5c2.6-2.4,6.3-3.3,8.9-5.7c14.1-13.1-10.7-41.6-17.3-51.8c-2.6-4-5.2-8-8.4-11.6
				c-7.3-8-17.4-13.1-28.1-15.2c-1.8-0.4-3.6-0.6-5.5-1c-0.6-4.7-1-9.6-0.6-14.2c2.6,0.2,5.4-0.4,8.1-0.8c34-5,59.2,28.9,71.6,56.2
				c12,26.5,13.7,56.7,25.3,83.3c8.9,20.3,23.4,38.3,28.2,60C2632.8,870.9,2633.2,879.7,2635.7,887.9z"/>
			<path class="st6" d="M2675.5,859.3c-4.9-28.1-27.4-46.1-42.1-68.9c-8.2-12.7-15.8-25.9-22.6-39.4c-6.4-12.7-10.5-27.5-18-39.5
				c-14.3-23-35.1-44.7-55.6-62.3c-10.2-8.7-23.1-9.9-33-0.2c-3.5,3.4-3.1,7.8-3.9,12.6c-0.1,0.7,2.9,1.7,5.6,1.4
				c34-5,59.2,28.9,71.6,56.2c12,26.5,13.7,56.7,25.3,83.3c8.9,20.3,23.4,38.3,28.2,60c1.9,8.4,2.2,17.1,4.7,25.4
				c1.3,4.2,3,7.6,5,10.2c0.6-0.4,1.2-0.7,1.9-1.1c7.3-4.2,14.7-8.4,21.7-13.2c2.9-1.9,5.8-4,7.9-6.8
				C2675.8,872.1,2676.5,865.4,2675.5,859.3z"/>
			<path class="st3" d="M2507,726.3c0.3,0.1,0.5,0.2,0.8,0.2c13.6,4.7,22.8,19.6,21,33.9c-1,7.9-5,15.8-2.9,23.5
				c1.2,4.6,4.6,8.9,3.8,13.6c-1,5.7-7.5,8.5-13,10.2c-3,0.9-6.3,2.4-9.6,3.4c1.2-3.3,2.2-6.6,3-10
				C2515.3,777.7,2511.7,751.5,2507,726.3z"/>
			<path class="st6" d="M2509.9,801.2l-43.3,31.7c-5,3.7-12.1,2.3-15.4-3l0,0c-3.7-6.1-0.4-14.2,6.5-15.9L2509.9,801.2z"/>
			<path class="st6" d="M2509.4,802.1l-52.1-12.7c-6.1-1.5-9.5-7.8-7.6-13.7l0,0c2.3-6.8,10.6-9.4,16.4-5.2L2509.4,802.1"/>
			<path class="st11" d="M2627.5,804.1l29.7,48.7c1.4,2.2,0.7,5.2-1.6,6.6l-1.4,0.8c-2.2,1.4-5.2,0.7-6.6-1.6l-29.7-48.7
				c-1.4-2.2-0.7-5.2,1.6-6.6l1.4-0.8C2623.2,801.2,2626.1,801.9,2627.5,804.1z"/>
		</g>
		<path class="st3" d="M1107.9,613.2c33.2,132.6-321.9,333.9-361,274l16-33.8c39.1,59.9,365.2-150,332-282.5L1107.9,613.2z"/>
		<rect x="1703.8" y="1055.7" class="st8" width="440.6" height="127.1"/>
		<rect x="1765.4" y="885.3" class="st18" width="310" height="170.4"/>
		<path class="st5" d="M1072.8,866.1c-47.8,2-66.2-45.9-84.5-81.1c-5.9-11.3-11.7-22.7-17.5-34.1c-4-8-8-16-12-24.1
			c-12.2-25-23.9-50.2-34.5-75.9c-13.5-32.5-25.3-70.1-9.7-101.7c7.9-16,28.1-35.8,47.4-35.5c19.2,0.3,40.1,18.7,50.3,33.6
			c10.5,15.2,16.6,32.8,22.6,50.3c13.4,38.6,26.8,77.1,40.1,115.8c10.4,30.4,32.8,64,36.4,96
			C1113.9,831.4,1097.8,865.1,1072.8,866.1z"/>
		<path class="st5" d="M1089.9,788.6c-15.4-1.5-31-0.5-46,3.2c-18.5,4.5-42.1,12.2-38.6,26.3c11.4,45.3,62.1,89.3,107.8,84.5
			l227.3-23.9l-4.9-65.8L1089.9,788.6z"/>
		<path class="st5" d="M1328,876.9c32.8,4.8,66.2,8.5,99.3,6c0.5,8.6,2,17.1,4.4,25.4c1.5,5.2,3.8,10.9,8.8,13.3
			c2.1,1,4.7,1.2,6.5,0c2.1-1.4,2.6-4.3,2.9-6.8c1.2-12.7,0.6-25.6-1.7-38.2c7.9,9.2,15,18.7,22.9,28.1c3.1,3.7,7,8.5,12.5,4.7
			c8.2-5.6-3.8-20.8-6.8-26.7c-9.6-18.9-22.1-33.1-37.7-47.5c-4.7-4.4-9.7-8.7-15.5-11.5c-5.5-2.6-11.6-3.8-17.6-4.8
			c-23.7-3.7-50.9-6.5-74.8-6.1C1329.3,832.8,1328.2,857,1328,876.9z"/>
		<path class="st8" d="M915.7,733.9l160.6-26.3c-10-28.9-18.2-76-28.2-105c-7.3-21-14.7-42.2-27.2-60.5
			c-12.4-17.9-37.5-40.1-60.6-40.4c-23.3-0.3-47.7,23.5-57.1,42.7c-18.7,38-14.4,93.4,1.8,132.5
			C915.7,702.8,903.6,708.6,915.7,733.9z"/>
		<path class="st6" d="M894.3,617.8c-3.4,21.9-2.2,42.3,10.6,59.1c10.8,25.9-1.3,31.8,10.8,57.1l51.3-6.2"/>
		<path class="st6" d="M1020.8,542.1c12.6,18.3,20,39.5,27.2,60.5c10,28.9,18.2,76,28.2,105"/>
		<polygon class="st3" points="1109.7,454.2 1064.9,426.2 1099.4,472.5 		"/>
		<path class="st3" d="M1032.4,714.8L970.8,751c-4-8-8-16-12-24.1L1032.4,714.8z"/>
		<path class="st3" d="M1042.4,272.5c-3.9-11-8.9-21.7-14.7-31.8c-0.4-0.6-0.8-1.3-1.5-1.6c-1-0.4-2.1,0.3-2.6,1.2
			c-0.5,0.9-0.6,2-0.6,3c0,8.3,2.2,16.6,6.3,23.8c-5.3-6.3-11-12.2-17.1-17.8c-1.1-1-2.3-2-3.8-1.9c-1.8,0.1-3.1,2.1-3.1,4
			c0,1.8,1,3.5,2,5.1c5.8,8.8,13.3,16.5,22.1,22.5C1033.2,275.6,1038.2,274.8,1042.4,272.5z"/>
		<circle class="st10" cx="1546.7" cy="1005.6" r="33.9"/>
		<path class="st2" d="M2543,971.7l-63.8-120.1c-100.5,54.6-292.5,170.9-359.1,215.1c-11.3,7.5-21,17.1-28.6,28.2
			c-37.6,55.1-75.2,110.1-112.7,165.1c-16,23.5-32,46.9-48.1,70.4c-8.1,11.9-16.2,23.7-24.3,35.6l-63.2,141.8
			c0.7,5,1.8,10.1,3.3,15.4c8.5,29.5,30.8,55.8,59.3,67.7c34,14.1,81.8-4.6,111.7-21.6c0,0,0.1,0,0.1,0
			c10.3-5.8,20.2-12.6,27.9-21.5c22.6-26,34.7-66.7,45-99c5.4-17.1,9.3-30.8,18.1-47.2c10.1-18.7,20.2-37.4,30.3-56.2
			c5.4-10.1,63.5-139.9,79.3-179.1C2324.1,1131,2414.9,1068.2,2543,971.7z"/>
		<path class="st2" d="M2017.6,1569.3c-2.5,2.2-5.1,4.4-7.8,6.3c-33.1,24.6-75.9,34.9-115.3,26.1c-19.8-4.4-37.1-11.1-53.5-19.6
			c-14.1-7.3-28.4-26.7-21.9-41.3l15.8-35.4l63.2-141.8c8.1-11.9,24.5-21.4,32.6-33.3c2.1,0.6,4.2,1.1,6.3,1.7
			c37.3,9.8,71.5,32.3,95.7,63.6c10.9,14.1,19.8,29.9,25.3,47.1C2072.1,1487.4,2051.6,1539.2,2017.6,1569.3z"/>
		<path class="st13" d="M844.7,904.1c34.5-0.2,69.6-24.5,96.4-43.8c6.6-4.7,13.1-9.8,18-16.3c14.2-18.7,11.2-48.2-6.6-63.6
			c-35.3-30.5-115.4,20.6-136.3,51.9C801.2,854.6,811.9,904.3,844.7,904.1z"/>
		<path class="st7" d="M2265.2,976c-101,54.8-71.8,43.5-135.2,84.6"/>
		<path class="st7" d="M2335.5,1113.7c63.1-35.4,128.1-82.2,207.4-142"/>
		<polygon class="st4" points="2328.6,1148 2271.9,1327.6 2222.8,1483.2 2182.8,1609.8 1529.2,1609.8 1519.6,1483.2 1507.7,1327.6 
			1494,1148 		"/>
		<polyline class="st4" points="1507.7,1327.6 2271.9,1327.6 2271.9,1327.6 		"/>
		<line class="st4" x1="2233.4" y1="1449.7" x2="1517" y2="1449.7"/>
		<path class="st13" d="M1670.2,1104.5c-3.9-18.4-15.7-35.1-31.8-44.9c-47.7-29.1-89.3,20.2-111.5,56.1
			c-14.5,23.4-35.5,70.1-48.4,94.4c37.1,22.3,70.5,47.2,110.2,61.6c11.1-16.7,31.9-50.3,44.1-66.1c11.6-15,23.2-30.2,30.7-46.8
			C1671,1142.4,1674.5,1124.7,1670.2,1104.5z"/>
		<path class="st19" d="M1859.9,1321.1c5.7,12.2,10.7,24.7,14.9,37.5c0.6,2,1.3,4.2,0.2,6c-1.2,2.1-4.1,2.6-6.4,1.7
			c-2.2-0.9-3.9-2.7-5.5-4.5c-13.8-15.7-25.1-29-31.6-49.2c-1.2-3.6-1.9-8.1,0.8-10.7C1842.7,1291.7,1856.8,1314.6,1859.9,1321.1z"
			/>
		<path class="st10" d="M1805.6,1365.3c3.5-0.5,8-2.6,11.2-5.1c5.1-4,33.4-22.5,33.6-28.3c0.4-19.3-9.6-37.7-23.4-51.3
			c-13.8-13.5-31.1-22.8-48.5-31.2c-9.6-4.6-19.4-9.1-29.2-13.2c-10.5-4.5-22.9-8.6-32.8-3.1c-9.5,5.3-3.2,19.5,1.1,29.5
			c8.4,19.7,31.8,29.8,50.8,36.4c18.4,6.4,49.5,11.2,61,28.9c-11.3,5.7-20.7,15-26.7,26.1
			C1797.5,1363.4,1800.6,1365.9,1805.6,1365.3z"/>
		<polygon class="st3" points="1649.3,1039.5 1595.2,1039.5 1651.5,1056.2 		"/>
		<line class="st6" x1="809.5" y1="862.2" x2="958" y2="786.3"/>
		<line class="st6" x1="816.2" y1="885.3" x2="968.4" y2="812.8"/>
		<line class="st6" x1="812.5" y1="876.7" x2="965.5" y2="800.4"/>
		<path class="st4" d="M1147.9,794c5.4,7.5,7.5,17,7.1,26.3c-0.3,9.2-2.8,18.3-5.7,27.1c-15.2,46.7-41.3,87.7-64.9,130.4
			c-8.2,14.9-16.4,29.7-24.2,44.8c-4.1,7.8-9.7,16.5-11.6,25.3"/>
		<path class="st4" d="M1215.1,800.3c12.9,15.6,15.7,32.8,11.8,52.4c-8.1,41.4-34.8,79.4-55.3,115.6c-10.2,18-20.3,35.9-30.1,54.1
			c-5.2,9.6-12.6,20.4-15,31.2"/>
		<path class="st4" d="M1151.6,898.6c0,0-49.7,97.8-74.5,146.6"/>
		<polygon class="st2" points="999.3,996.6 1151.6,1053.2 1029.2,1375.2 929.8,1339.9 864.3,1272.4 		"/>
		<line class="st4" x1="945.6" y1="1346.3" x2="1078.3" y2="1025.9"/>
		<line class="st7" x1="1837.4" y1="885.3" x2="1837.4" y2="1054.7"/>
		<line class="st7" x1="1764.9" y1="955.1" x2="2075.4" y2="955.1"/>
		<path class="st7" d="M1798.2,863.8l38.9,23.1l-9.7-41.7c-3.1-13.3-15-23-28.7-22.5c-10.1,0.3-15.3,5.9-14.7,17.7
			C1784.5,850.1,1789.9,858.9,1798.2,863.8z"/>
		<path class="st7" d="M1876,863.8l-38.9,23.1l9.7-41.7c3.1-13.3,15-23,28.7-22.5c10.1,0.3,15.3,5.9,14.7,17.7
			C1889.8,850.1,1884.4,858.9,1876,863.8z"/>
		<path class="st7" d="M1842.4,883.2c-6.2-2.1-12.9,2.3-16.4,7.8c-3.5,5.5-4.9,12.1-7.9,17.9c-3.2,6.2-8.2,11.5-14.5,14.4
			c-6.3,2.9-13.9,3.2-20.2,0.3c-1.8-0.8-3.4-1.9-4.7-3.4c-3-3.4-3.5-8.6-1.7-12.8c1.8-4.2,5.8-7.2,10.1-8.4"/>
		<path class="st7" d="M1837.5,884.9c-7.8-4.4-16.4-7.4-25.2-9c-7.2-1.2-14.6-1.4-21.6,0.2c-9.7,2.3-18.1,8-26.9,12.6
			c-9.1,4.8-19.1,8.6-29.4,8.3c-10.3-0.3-20.9-5.6-25.3-15c-4.3-9.4-0.1-22.4,9.7-25.6"/>
		<path class="st8" d="M971.8,431.1c-10.9-7.4-22.9-14.7-36.1-14.8c-10-0.1-19.5,4-28.7,7.9c-8.6,3.7-17.1,7.4-25.7,11.1
			c-14.4,6.3-29.4,12.9-39.7,24.8c-10.3,11.9-14.4,30.7-5.1,43.4c7.4,10.1,20.7,13.6,32.9,16.2c32.4,7,65.1,12.8,97.9,17.5
			c17.8,2.5,35.6,4.7,53.5,6.6c26.4,2.8,53.5,9,78.8,12c-4-10.9-17.9-24.3-26-33.9c-9.3-11-19-20.9-29.4-31.1
			C1021.9,468.8,997.6,448.8,971.8,431.1z"/>
		<path class="st6" d="M1075.3,532.9c-7.7,20.9-24.6,38.1-45.4,46.2c-20.7,8-44.9,6.7-64.6-3.5C945,565,929.5,545.8,907.8,539
			c-18.5-5.9-40-1.3-54.5,11.7"/>
	</g>
	<path class="st9" d="M1889,771h-91.7c-17.3,0-31.4-14.1-31.4-31.4v-91.4c0-17.3,14.1-31.4,31.4-31.4h91.7
		c17.3,0,31.4,14.1,31.4,31.4v91.4C1920.4,756.9,1906.3,771,1889,771z"/>
	<path class="st9" d="M1814.2,740.7l23.5,57.3c2.7,6.5,11.9,6.3,14.2-0.3l20.3-57H1814.2z"/>
	<path class="st13" d="M1662.6,1156.6c-7.2,15.7-18.1,30.1-29.1,44.3c-24.4,31.8-46.6,65.4-66.2,100.3
		c-13.9,24.7-28.2,54.2-48.4,74.1c-21.4,21.1-67.7,49.4-91.1,16.3c-28.1-39.9,8.6-97.2,27.5-132.7c25.6-47.9,49.4-96.9,78-143.1
		c21-33.9,60.4-80.6,105.5-53.1c15.2,9.3,26.4,25,30.1,42.5C1673,1124.4,1669.7,1141.1,1662.6,1156.6z"/>
	<polygon class="st13" points="1449.7,1286.8 1721.8,1232.6 1756.1,1285.7 1478.1,1402.1 	"/>
	<line class="st6" x1="1719.5" y1="1231.7" x2="1506.6" y2="1290.1"/>
	<path class="st6" d="M1670.3,1128.1c-6.3,50.8-47.2,94-75.4,135.1"/>
	<g>
		<path class="st16" d="M1797.8,688.5c0-1.5,0-3.1,0-4.6c0.1-0.3,0.1-0.5,0.2-0.8c0.4-4.2,1.6-8.2,3.8-11.9
			c5.2-8.8,15.2-13.6,25.3-11.9c6.1,1,10.9,4.3,14.9,9c0.4,0.5,0.8,1,1.2,1.5c0.8-1,1.6-2,2.5-2.9c10.7-11.8,27.8-9.7,36.2,0.6
			c7.1,8.6,8.4,18.4,4.8,28.8c-2.1,6.1-6,11.2-10.7,15.6c-8.7,8.1-18,15.6-27.2,23.1c-3.3,2.7-7.7,2.6-11,0c-2-1.6-4-3.2-6-4.9
			c-7.5-6.4-15.1-12.8-22.4-19.4c-5.1-4.6-8.6-10.4-10.5-17.1C1798.4,692,1798.2,690.2,1797.8,688.5z"/>
	</g>
</g>
</svg>
